<mxfile host="app.diagrams.net" modified="2024-02-14T12:01:50.661Z" agent="Mozilla/5.0 (Windows NT 10.0; WOW64) AppleWebKit/537.36 (KHTML, like Gecko) Chrome/86.0.4240.198 Safari/537.36" version="22.1.21" etag="Bu57SANuWLsfY9nEbDLK" type="github">
  <diagram name="第 1 页" id="JIGYGbjS5BzIWuy9lRwW">
    <mxGraphModel>
      <root>
        <mxCell id="0" />
        <mxCell id="1" parent="0" />
      </root>
    </mxGraphModel>
  </diagram>
</mxfile>
